HIERARCHY
ROOT Hips
{
	OFFSET 0.000000 0.000000 0.000000
	CHANNELS 6 Xposition Yposition Zposition Zrotation Yrotation Xrotation 
	JOINT LowerBack
	{
		OFFSET 0.000000 0.000000 0.000000
		CHANNELS 3 Zrotation Yrotation Xrotation
		JOINT Spine
		{
			OFFSET 0.028270 2.035590 -0.193380
			CHANNELS 3 Zrotation Yrotation Xrotation
			JOINT Spine1
			{
				OFFSET 0.056720 2.048850 -0.042750
				CHANNELS 3 Zrotation Yrotation Xrotation
				JOINT Neck
				{
					OFFSET 0.000000 0.000000 0.000000
					CHANNELS 3 Zrotation Yrotation Xrotation
					JOINT Neck1
					{
						OFFSET -0.054170 1.746240 0.172020
						CHANNELS 3 Zrotation Yrotation Xrotation
						JOINT Head
						{
							OFFSET 0.104070 1.761360 -0.123970
							CHANNELS 3 Zrotation Yrotation Xrotation
							End Site
							{
								OFFSET 0.000000 0.000000 0.000000
							}
						}
					}
				}
				JOINT LeftShoulder
				{
					OFFSET 0.000000 0.000000 0.000000
					CHANNELS 3 Zrotation Yrotation Xrotation
					JOINT LeftArm
					{
						OFFSET 3.362410 1.200890 -0.311210
						CHANNELS 3 Zrotation Yrotation Xrotation
						JOINT LeftForeArm
						{
							OFFSET 4.983000 -0.000000 -0.000000
							CHANNELS 3 Zrotation Yrotation Xrotation
							JOINT LeftHand
							{
								OFFSET 3.483560 -0.000000 -0.000000
								CHANNELS 3 Zrotation Yrotation Xrotation
								JOINT LeftFingerBase
								{
									OFFSET 0.000000 0.000000 0.000000
									CHANNELS 3 Zrotation Yrotation Xrotation
									JOINT LeftHandIndex1
									{
										OFFSET 0.715260 -0.000000 -0.000000
										CHANNELS 3 Zrotation Yrotation Xrotation
										End Site
										{
											OFFSET 0.000000 0.000000 0.000000
										}
									}
								}
								JOINT LThumb
								{
									OFFSET 0.000000 0.000000 0.000000
									CHANNELS 3 Zrotation Yrotation Xrotation
									End Site
									{
										OFFSET 0.000000 0.000000 0.000000
									}
								}
							}
						}
					}
				}
				JOINT RightShoulder
				{
					OFFSET 0.000000 0.000000 0.000000
					CHANNELS 3 Zrotation Yrotation Xrotation
					JOINT RightArm
					{
						OFFSET -3.136600 1.374050 -0.404650
						CHANNELS 3 Zrotation Yrotation Xrotation
						JOINT RightForeArm
						{
							OFFSET -5.241900 -0.000000 -0.000000
							CHANNELS 3 Zrotation Yrotation Xrotation
							JOINT RightHand
							{
								OFFSET -3.444170 -0.000000 -0.000000
								CHANNELS 3 Zrotation Yrotation Xrotation
								JOINT RightFingerBase
								{
									OFFSET 0.000000 0.000000 0.000000
									CHANNELS 3 Zrotation Yrotation Xrotation
									JOINT RightHandIndex1
									{
										OFFSET -0.622530 -0.000000 -0.000000
										CHANNELS 3 Zrotation Yrotation Xrotation
										End Site
										{
											OFFSET 0.000000 0.000000 0.000000
										}
									}
								}
								JOINT RThumb
								{
									OFFSET 0.000000 0.000000 0.000000
									CHANNELS 3 Zrotation Yrotation Xrotation
									End Site
									{
										OFFSET 0.000000 0.000000 0.000000
									}
								}
							}
						}
					}
				}
			}
		}
	}
}
}
MOTION
Frames: 12
Frame Time: 0.008333
3.420481 16.961850 1.497746 6.634445 37.115010 9.787389 3.760738 -5.828592 -0.263550 0.878564 -6.090373 -2.306635 -3.092958 -6.265358 2.688177 8.739934 -19.408503 -10.482801 -1.149158 -0.038574 -0.708756 0.000000 0.000000 0.000000 10.679562 5.210421 2.307077 -12.001937 -7.707873 -22.521271 -0.318847 -49.609650 -0.123730 13.825668 1.636739 0.142200 -0.270609 0.488268 0.000000 0.000000 0.000000 0.000000 0.000000 0.000000 0.000000 10.525938 -18.569284 1.466667 38.170679 -18.602313 -43.233061 2.375708 32.357741 0.001545 -3.557779 4.904092 -0.165888 0.162685 -0.213281 0.000000 0.000000 0.000000 0.000000 0.000000 0.000000 0.000000 
3.462021 16.933111 1.597902 6.324472 36.621190 9.401873 4.012575 -5.770546 -0.009024 0.893293 -6.044973 -2.269062 -3.222352 -6.217308 2.632968 8.821897 -19.391291 -10.537864 -1.201837 -0.042003 -0.726002 0.000000 0.000000 0.000000 10.631081 5.314399 2.195566 -12.526104 -7.376858 -22.303370 -0.296429 -51.497217 -0.126422 14.119160 1.502828 0.127810 -0.267690 0.492333 0.000000 0.000000 0.000000 0.000000 0.000000 0.000000 0.000000 10.664867 -18.499355 1.499271 39.138195 -18.284752 -43.487184 2.361401 32.529859 0.000423 -3.793205 4.723457 -0.169990 0.162309 -0.208726 0.000000 0.000000 0.000000 0.000000 0.000000 0.000000 0.000000 
3.499259 16.900266 1.696154 6.017329 36.110221 9.009161 4.227312 -5.710551 0.285651 0.896174 -5.994661 -2.223071 -3.364858 -6.163890 2.573990 8.940755 -19.367625 -10.600631 -1.256499 -0.045415 -0.745822 0.000000 0.000000 0.000000 10.615451 5.410712 2.083214 -13.083663 -7.035449 -22.024648 -0.279024 -53.442041 -0.128927 14.399194 1.385585 0.114720 -0.265040 0.495555 0.000000 0.000000 0.000000 0.000000 0.000000 0.000000 0.000000 10.840443 -18.422584 1.536985 40.176028 -17.856271 -43.689834 2.352408 32.626184 -0.000587 -3.990761 4.518228 -0.170794 0.161412 -0.203455 0.000000 0.000000 0.000000 0.000000 0.000000 0.000000 0.000000 
3.532274 16.862973 1.792725 5.717669 35.590079 8.612199 4.402999 -5.649480 0.616357 0.886867 -5.940309 -2.169232 -3.520958 -6.105884 2.512107 9.097749 -19.338379 -10.670956 -1.314667 -0.048940 -0.768157 0.000000 0.000000 0.000000 10.623911 5.501898 1.972446 -13.656442 -6.700403 -21.678965 -0.266743 -55.422402 -0.131093 14.651687 1.294399 0.104530 -0.262554 0.497720 0.000000 0.000000 0.000000 0.000000 0.000000 0.000000 0.000000 11.062752 -18.340052 1.577966 41.262849 -17.331638 -43.806011 2.349622 32.658869 -0.001451 -4.156444 4.305331 -0.169396 0.160096 -0.197544 0.000000 0.000000 0.000000 0.000000 0.000000 0.000000 0.000000 
3.561285 16.821186 1.887883 5.430454 35.068907 8.217065 4.539419 -5.588091 0.975791 0.865295 -5.882897 -2.109005 -3.691953 -6.044149 2.447332 9.292252 -19.300805 -10.747318 -1.378934 -0.052830 -0.792539 0.000000 0.000000 0.000000 10.645039 5.585587 1.865868 -14.227519 -6.379329 -21.260955 -0.259663 -57.424021 -0.132759 14.863179 1.234883 0.098041 -0.260103 0.498638 0.000000 0.000000 0.000000 0.000000 0.000000 0.000000 0.000000 11.342933 -18.249216 1.620212 42.376369 -16.729965 -43.803923 2.354027 32.638459 -0.002138 -4.298638 4.103905 -0.166798 0.158480 -0.191059 0.000000 0.000000 0.000000 0.000000 0.000000 0.000000 0.000000 
3.586710 16.775056 1.981833 5.158677 34.553767 7.829063 4.639896 -5.526456 1.356822 0.832173 -5.822900 -2.043752 -3.878955 -5.979037 2.380226 9.521292 -19.252327 -10.828468 -1.452035 -0.057344 -0.818616 0.000000 0.000000 0.000000 10.664577 5.665484 1.765325 -14.783653 -6.089384 -20.768530 -0.257521 -59.429416 -0.133782 15.022525 1.206637 0.095355 -0.257530 0.498210 -0.000000 0.000000 0.000000 0.000000 0.000000 0.000000 0.000000 11.690627 -18.147959 1.661616 43.495411 -16.065943 -43.659863 2.366343 32.571262 -0.002623 -4.425944 3.933472 -0.164399 0.156660 -0.184080 0.000000 0.000000 0.000000 0.000000 0.000000 0.000000 0.000000 
3.609063 16.725051 2.074713 4.904213 34.049712 7.455464 4.710233 -5.464302 1.749975 0.788688 -5.760628 -1.975676 -4.083416 -5.910742 2.310227 9.779055 -19.186052 -10.911363 -1.537294 -0.062824 -0.845522 0.000000 0.000000 0.000000 10.666631 5.738446 1.672948 -15.315254 -5.832388 -20.201616 -0.260092 -61.430514 -0.134023 15.120854 1.204193 0.095871 -0.254702 0.496367 -0.000000 0.000000 0.000000 0.000000 0.000000 0.000000 0.000000 12.113021 -18.029645 1.700442 44.601277 -15.355820 -43.359003 2.386958 32.460338 -0.002895 -4.549174 3.811362 -0.163498 0.154724 -0.176682 0.000000 0.000000 0.000000 0.000000 0.000000 0.000000 0.000000 
3.628884 16.671837 2.166572 4.667739 33.558504 7.102654 4.757975 -5.400887 2.147391 0.736589 -5.695911 -1.906528 -4.305719 -5.839015 2.237606 10.057700 -19.095670 -10.993240 -1.637343 -0.069549 -0.872524 0.000000 0.000000 0.000000 10.637143 5.807805 1.589747 -15.820983 -5.620051 -19.563903 -0.266747 -63.413366 -0.133398 15.152572 1.214626 0.097892 -0.251495 0.493196 -0.000000 0.000000 0.000000 0.000000 0.000000 0.000000 0.000000 12.612907 -17.888637 1.735262 45.679971 -14.607205 -42.899858 2.415507 32.303246 -0.002960 -4.678284 3.749084 -0.164897 0.152715 -0.168956 0.000000 0.000000 0.000000 0.000000 0.000000 0.000000 0.000000 
3.646797 16.616268 2.257382 4.447835 33.078255 6.777107 4.791867 -5.335120 2.540460 0.678020 -5.628243 -1.838369 -4.545571 -5.763310 2.162398 10.346919 -18.972833 -11.070262 -1.754317 -0.077770 -0.898596 0.000000 0.000000 0.000000 10.563773 5.874589 1.516515 -16.307754 -5.455904 -18.861182 -0.276780 -65.366762 -0.131843 15.114056 1.219097 0.098819 -0.247811 0.488871 -0.000000 0.000000 0.000000 0.000000 0.000000 0.000000 0.000000 13.187494 -17.717176 1.765288 46.723193 -13.822775 -42.292389 2.450913 32.092954 -0.002846 -4.824063 3.751935 -0.169595 0.150641 -0.161013 0.000000 0.000000 0.000000 0.000000 0.000000 0.000000 0.000000 
3.663415 16.559408 2.347010 4.241668 32.604054 6.484521 4.821707 -5.265855 2.921063 0.615450 -5.557041 -1.773438 -4.802037 -5.683069 2.083912 10.634637 -18.807667 -11.137090 -1.889711 -0.087702 -0.922303 0.000000 0.000000 0.000000 10.435075 5.933373 1.454386 -16.785705 -5.328837 -18.099216 -0.289425 -67.284676 -0.129318 15.003523 1.197083 0.095852 -0.243608 0.483576 -0.000000 0.000000 0.000000 0.000000 0.000000 0.000000 0.000000 13.828425 -17.505749 1.790585 47.727832 -13.002134 -41.553996 2.491397 31.820425 -0.002600 -4.999024 3.817894 -0.178092 0.148487 -0.152968 0.000000 0.000000 0.000000 0.000000 0.000000 0.000000 0.000000 
3.679282 16.502314 2.435310 4.046641 32.127492 6.229553 4.854994 -5.191907 3.282846 0.551354 -5.481441 -1.713205 -5.071860 -5.597512 2.003231 10.908237 -18.592371 -11.189427 -2.043192 -0.099376 -0.942556 0.000000 0.000000 0.000000 10.247335 5.989911 1.402865 -17.279342 -5.244710 -17.285453 -0.303578 -69.146780 -0.125846 14.821383 1.122736 0.085692 -0.238848 0.477680 -0.000000 0.000000 0.000000 0.000000 0.000000 0.000000 0.000000 14.521058 -17.247366 1.811508 48.696783 -12.134205 -40.713211 2.534394 31.472108 -0.002290 -5.211634 3.935298 -0.190591 0.146186 -0.144991 0.000000 0.000000 0.000000 0.000000 0.000000 0.000000 0.000000 
3.694854 16.446128 2.522121 3.859168 31.637872 6.015819 4.898156 -5.112311 3.619756 0.488111 -5.400712 -1.659260 -5.351103 -5.506057 1.920800 11.154838 -18.318697 -11.221956 -2.213502 -0.112747 -0.957972 0.000000 0.000000 0.000000 9.998614 6.043534 1.362050 -17.814077 -5.194521 -16.424702 -0.318225 -70.936653 -0.121452 14.568999 0.973850 0.065740 -0.233549 0.471483 -0.000000 0.000000 0.000000 0.000000 0.000000 0.000000 0.000000 15.246118 -16.934132 1.829180 49.637833 -11.206936 -39.800035 2.576951 31.036128 -0.001999 -5.469565 4.085951 -0.206691 0.143665 -0.137269 0.000000 0.000000 0.000000 0.000000 0.000000 0.000000 0.000000 
